<svg id="new_layer" data-name="new layer" xmlns="http://www.w3.org/2000/svg" viewBox="0 0 1224 792"><defs><style>.cls-1{fill:#f20f0f;stroke:#fff;stroke-miterlimit:10;stroke-width:0.25px;}</style></defs><g id="nNOS"><g id="Cell_bodies" data-name="Cell bodies"><circle class="cls-1" cx="770.54" cy="557.46" r="1.26"/><circle class="cls-1" cx="767.39" cy="550.17" r="1.26"/><circle class="cls-1" cx="763.85" cy="550.02" r="1.26"/><circle class="cls-1" cx="770.37" cy="549.49" r="1.26"/><circle class="cls-1" cx="771.63" cy="550.98" r="1.26"/><circle class="cls-1" cx="771.58" cy="552.92" r="1.26"/><circle class="cls-1" cx="784.86" cy="550" r="1.26"/><circle class="cls-1" cx="738.09" cy="556.59" r="1.26"/><circle class="cls-1" cx="731.21" cy="552.27" r="1.26"/><circle class="cls-1" cx="739.02" cy="555.72" r="1.26"/><circle class="cls-1" cx="745.56" cy="558.84" r="1.26"/><circle class="cls-1" cx="744.34" cy="559.21" r="1.26"/><circle class="cls-1" cx="749.13" cy="552.12" r="1.26"/><circle class="cls-1" cx="748.38" cy="559.2" r="1.26"/><circle class="cls-1" cx="750.08" cy="559.57" r="1.26"/><circle class="cls-1" cx="752.5" cy="560.86" r="1.26"/><circle class="cls-1" cx="759.53" cy="545.7" r="1.26"/><circle class="cls-1" cx="749.68" cy="557.51" r="1.26"/><circle class="cls-1" cx="779.09" cy="557.66" r="1.26"/><circle class="cls-1" cx="780.33" cy="555.32" r="1.26"/><circle class="cls-1" cx="781.86" cy="556.02" r="1.26"/><circle class="cls-1" cx="777.55" cy="552.75" r="1.26"/><circle class="cls-1" cx="781.38" cy="553.23" r="1.26"/><circle class="cls-1" cx="720.41" cy="574.78" r="1.26"/><circle class="cls-1" cx="717.99" cy="569.54" r="1.26"/><circle class="cls-1" cx="724.94" cy="585.57" r="1.26"/><circle class="cls-1" cx="752.95" cy="538.65" r="1.26"/><circle class="cls-1" cx="722.79" cy="584.14" r="1.26"/><circle class="cls-1" cx="716.09" cy="582.52" r="1.26"/><circle class="cls-1" cx="720.16" cy="583.64" r="1.26"/><circle class="cls-1" cx="733.66" cy="545.91" r="1.26"/><circle class="cls-1" cx="760.76" cy="567.11" r="1.26"/><circle class="cls-1" cx="764.62" cy="565.75" r="1.26"/><circle class="cls-1" cx="764.08" cy="551.78" r="1.26"/><circle class="cls-1" cx="723.54" cy="568.73" r="1.26"/><circle class="cls-1" cx="724.26" cy="567.11" r="1.26"/><circle class="cls-1" cx="724.37" cy="568.43" r="1.26"/><circle class="cls-1" cx="724.77" cy="570.84" r="1.26"/><circle class="cls-1" cx="727.83" cy="571.06" r="1.26"/><circle class="cls-1" cx="726.5" cy="570.11" r="1.26"/><circle class="cls-1" cx="745.67" cy="567.01" r="1.26"/><circle class="cls-1" cx="745.73" cy="566.64" r="1.26"/><circle class="cls-1" cx="745.33" cy="564.75" r="1.26"/><circle class="cls-1" cx="748.08" cy="564.26" r="1.26"/><circle class="cls-1" cx="748.67" cy="565.7" r="1.26"/><circle class="cls-1" cx="757.1" cy="563.84" r="1.26"/><circle class="cls-1" cx="759.44" cy="563.44" r="1.26"/><circle class="cls-1" cx="763.56" cy="562.18" r="1.26"/><circle class="cls-1" cx="764.71" cy="561.61" r="1.26"/><circle class="cls-1" cx="767.75" cy="562.63" r="1.26"/><circle class="cls-1" cx="757.89" cy="555.06" r="1.26"/><circle class="cls-1" cx="759.17" cy="555.64" r="1.26"/><circle class="cls-1" cx="760.63" cy="557.28" r="1.26"/><circle class="cls-1" cx="762.32" cy="558.38" r="1.26"/><circle class="cls-1" cx="767.72" cy="557.16" r="1.26"/><circle class="cls-1" cx="720.11" cy="567.89" r="1.26"/><circle class="cls-1" cx="721.36" cy="566" r="1.26"/><circle class="cls-1" cx="729.82" cy="565.41" r="1.26"/><circle class="cls-1" cx="733.67" cy="564.65" r="1.26"/><circle class="cls-1" cx="731.68" cy="561.3" r="1.26"/><circle class="cls-1" cx="735.36" cy="558.19" r="1.26"/><circle class="cls-1" cx="740.66" cy="561.91" r="1.26"/><circle class="cls-1" cx="738.97" cy="561.98" r="1.26"/><circle class="cls-1" cx="739.75" cy="564.3" r="1.26"/><circle class="cls-1" cx="738.42" cy="565.05" r="1.26"/><circle class="cls-1" cx="721.81" cy="588.01" r="1.26"/><circle class="cls-1" cx="719.87" cy="587.59" r="1.26"/><circle class="cls-1" cx="729.37" cy="577.06" r="1.26"/><circle class="cls-1" cx="724.28" cy="579.9" r="1.26"/><circle class="cls-1" cx="722.96" cy="579.84" r="1.26"/><circle class="cls-1" cx="722.75" cy="580.55" r="1.26"/><circle class="cls-1" cx="720.31" cy="578.68" r="1.26"/><circle class="cls-1" cx="720.69" cy="579.07" r="1.26"/><circle class="cls-1" cx="720.77" cy="577.88" r="1.26"/><circle class="cls-1" cx="722.22" cy="576.94" r="1.26"/><circle class="cls-1" cx="723.92" cy="576.98" r="1.26"/><circle class="cls-1" cx="724.92" cy="575.84" r="1.26"/><circle class="cls-1" cx="723.13" cy="572.2" r="1.26"/><circle class="cls-1" cx="725.68" cy="579.45" r="1.26"/><circle class="cls-1" cx="723.45" cy="570.29" r="1.26"/><circle class="cls-1" cx="722.93" cy="569.5" r="1.26"/><circle class="cls-1" cx="714.19" cy="587.65" r="1.26"/><circle class="cls-1" cx="715.7" cy="588.58" r="1.26"/><circle class="cls-1" cx="706.25" cy="579.56" r="1.26"/><circle class="cls-1" cx="709.02" cy="578.55" r="1.26"/><circle class="cls-1" cx="707.17" cy="583.73" r="1.26"/><circle class="cls-1" cx="715" cy="580.4" r="1.26"/><circle class="cls-1" cx="711.77" cy="567.31" r="1.26"/><circle class="cls-1" cx="713.58" cy="573.78" r="1.26"/><circle class="cls-1" cx="713.5" cy="568.84" r="1.26"/><circle class="cls-1" cx="716.23" cy="573.71" r="1.26"/><circle class="cls-1" cx="716.73" cy="574.12" r="1.26"/><circle class="cls-1" cx="714.13" cy="568.3" r="1.26"/><circle class="cls-1" cx="714.19" cy="564.18" r="1.26"/><circle class="cls-1" cx="716.96" cy="566.44" r="1.26"/><circle class="cls-1" cx="715.93" cy="563.91" r="1.26"/><circle class="cls-1" cx="715.48" cy="561.12" r="1.26"/><circle class="cls-1" cx="716.29" cy="560.98" r="1.26"/><circle class="cls-1" cx="717.3" cy="563.98" r="1.26"/><circle class="cls-1" cx="718.07" cy="565.72" r="1.26"/><circle class="cls-1" cx="718.04" cy="564.92" r="1.26"/><circle class="cls-1" cx="718.5" cy="563.98" r="1.26"/><circle class="cls-1" cx="719.45" cy="565.04" r="1.26"/><circle class="cls-1" cx="720.28" cy="562.8" r="1.26"/><circle class="cls-1" cx="720.73" cy="561.19" r="1.26"/><circle class="cls-1" cx="718.61" cy="568.59" r="1.26"/><circle class="cls-1" cx="722.43" cy="573.59" r="1.26"/><circle class="cls-1" cx="722.5" cy="551.8" r="1.26"/><circle class="cls-1" cx="718.7" cy="553.56" r="1.26"/><circle class="cls-1" cx="718.12" cy="554.43" r="1.26"/><circle class="cls-1" cx="717.63" cy="553.26" r="1.26"/><circle class="cls-1" cx="717.47" cy="554.09" r="1.26"/><circle class="cls-1" cx="716.29" cy="551.16" r="1.26"/><circle class="cls-1" cx="718.58" cy="557.01" r="1.26"/><circle class="cls-1" cx="719.18" cy="556.81" r="1.26"/><circle class="cls-1" cx="721.33" cy="556.03" r="1.26"/><circle class="cls-1" cx="715.69" cy="557.65" r="1.26"/><circle class="cls-1" cx="715.64" cy="557.16" r="1.26"/><circle class="cls-1" cx="712.6" cy="561.7" r="1.26"/><circle class="cls-1" cx="726.81" cy="554.81" r="1.26"/><circle class="cls-1" cx="724.06" cy="555.28" r="1.26"/><circle class="cls-1" cx="723.2" cy="560.39" r="1.26"/><circle class="cls-1" cx="739.63" cy="547.33" r="1.26"/><circle class="cls-1" cx="740.95" cy="546.42" r="1.26"/><circle class="cls-1" cx="743.91" cy="546.26" r="1.26"/><circle class="cls-1" cx="705.72" cy="576.72" r="1.26"/><circle class="cls-1" cx="751.35" cy="606.74" r="1.26"/><circle class="cls-1" cx="750.95" cy="606.63" r="1.26"/><circle class="cls-1" cx="750.95" cy="606.91" r="1.26"/><circle class="cls-1" cx="751.06" cy="607.03" r="1.26"/><circle class="cls-1" cx="750.89" cy="607.19" r="1.26"/><circle class="cls-1" cx="751.44" cy="607.23" r="1.26"/><circle class="cls-1" cx="751.56" cy="607.49" r="1.26"/><circle class="cls-1" cx="751.73" cy="606.85" r="1.26"/><circle class="cls-1" cx="752.29" cy="605.95" r="1.26"/><circle class="cls-1" cx="752.29" cy="605.71" r="1.26"/><circle class="cls-1" cx="751.9" cy="606.86" r="1.26"/><circle class="cls-1" cx="752.29" cy="606.76" r="1.26"/><circle class="cls-1" cx="752.21" cy="606.9" r="1.26"/><circle class="cls-1" cx="752.45" cy="606.88" r="1.26"/><circle class="cls-1" cx="752.2" cy="607.12" r="1.26"/><circle class="cls-1" cx="752.47" cy="607.09" r="1.26"/><circle class="cls-1" cx="752.17" cy="607.46" r="1.26"/><circle class="cls-1" cx="751.85" cy="607.15" r="1.26"/><circle class="cls-1" cx="751.69" cy="607.93" r="1.26"/><circle class="cls-1" cx="752.8" cy="607.23" r="1.26"/><circle class="cls-1" cx="752.89" cy="606.89" r="1.26"/><circle class="cls-1" cx="753.98" cy="605.91" r="1.26"/><circle class="cls-1" cx="751.16" cy="606.02" r="1.26"/><circle class="cls-1" cx="751.78" cy="605.53" r="1.26"/><circle class="cls-1" cx="751.76" cy="605.87" r="1.26"/><circle class="cls-1" cx="750.55" cy="607.09" r="1.26"/><circle class="cls-1" cx="752.35" cy="603.87" r="1.26"/><circle class="cls-1" cx="752.36" cy="604.13" r="1.26"/><circle class="cls-1" cx="752.97" cy="603.81" r="1.26"/><circle class="cls-1" cx="753.31" cy="603.98" r="1.26"/><circle class="cls-1" cx="753.4" cy="604.22" r="1.26"/><circle class="cls-1" cx="753.17" cy="604.36" r="1.26"/><circle class="cls-1" cx="753.34" cy="604.5" r="1.26"/><circle class="cls-1" cx="752.86" cy="604.86" r="1.26"/><circle class="cls-1" cx="752.55" cy="604.87" r="1.26"/><circle class="cls-1" cx="753.12" cy="604.64" r="1.26"/><circle class="cls-1" cx="753.4" cy="605.22" r="1.26"/><circle class="cls-1" cx="753.53" cy="605.48" r="1.26"/><circle class="cls-1" cx="753.17" cy="605.39" r="1.26"/><circle class="cls-1" cx="753.04" cy="605.52" r="1.26"/><circle class="cls-1" cx="753.3" cy="605.61" r="1.26"/><circle class="cls-1" cx="753.02" cy="605.57" r="1.26"/><circle class="cls-1" cx="752.46" cy="605.6" r="1.26"/><circle class="cls-1" cx="752.47" cy="605.6" r="1.26"/><circle class="cls-1" cx="752.67" cy="605.68" r="1.26"/><circle class="cls-1" cx="753.03" cy="605.76" r="1.26"/><circle class="cls-1" cx="752.91" cy="606.69" r="1.26"/><circle class="cls-1" cx="753.17" cy="605.97" r="1.26"/><circle class="cls-1" cx="752.52" cy="606.64" r="1.26"/><circle class="cls-1" cx="751.07" cy="605.89" r="1.26"/><circle class="cls-1" cx="750.88" cy="605.98" r="1.26"/><circle class="cls-1" cx="750.39" cy="606.06" r="1.26"/><circle class="cls-1" cx="750.13" cy="606.31" r="1.26"/><circle class="cls-1" cx="749.43" cy="606.23" r="1.26"/><circle class="cls-1" cx="748.99" cy="606.47" r="1.26"/><circle class="cls-1" cx="749.9" cy="606.49" r="1.26"/><circle class="cls-1" cx="749.85" cy="606.79" r="1.26"/><circle class="cls-1" cx="750.78" cy="606.38" r="1.26"/><circle class="cls-1" cx="750.66" cy="606.2" r="1.26"/><circle class="cls-1" cx="750.71" cy="606.71" r="1.26"/><circle class="cls-1" cx="632.58" cy="514.28" r="1.26"/><circle class="cls-1" cx="633.31" cy="513.76" r="1.26"/><circle class="cls-1" cx="629.69" cy="514.6" r="1.26"/><circle class="cls-1" cx="626.51" cy="515.29" r="1.26"/><circle class="cls-1" cx="632.22" cy="513" r="1.26"/><circle class="cls-1" cx="635.42" cy="513.7" r="1.26"/><circle class="cls-1" cx="635.29" cy="512.85" r="1.26"/><circle class="cls-1" cx="634.06" cy="512.5" r="1.26"/><circle class="cls-1" cx="633.92" cy="513.07" r="1.26"/><circle class="cls-1" cx="635.81" cy="512.08" r="1.26"/><circle class="cls-1" cx="636.55" cy="512.34" r="1.26"/><circle class="cls-1" cx="637.75" cy="512.31" r="1.26"/><circle class="cls-1" cx="639.21" cy="512.58" r="1.26"/><path class="cls-1" d="M638.44,509.34a1.26,1.26,0,1,1-1.26,1.26A1.26,1.26,0,0,1,638.44,509.34Z"/><circle class="cls-1" cx="648.4" cy="509.42" r="1.26"/><circle class="cls-1" cx="625.45" cy="516.56" r="1.26"/><circle class="cls-1" cx="626.65" cy="516.27" r="1.26"/><circle class="cls-1" cx="691.3" cy="609.62" r="1.26"/><circle class="cls-1" cx="686.92" cy="606.07" r="1.26"/><circle class="cls-1" cx="686.05" cy="584.08" r="1.26"/><circle class="cls-1" cx="686.1" cy="586.13" r="1.26"/><circle class="cls-1" cx="683.65" cy="589.83" r="1.26"/><circle class="cls-1" cx="683.69" cy="587.5" r="1.26"/><circle class="cls-1" cx="682.97" cy="596.83" r="1.26"/><circle class="cls-1" cx="683.04" cy="594.95" r="1.26"/><circle class="cls-1" cx="690.78" cy="592.21" r="1.26"/><circle class="cls-1" cx="692.47" cy="590.85" r="1.26"/><circle class="cls-1" cx="692.94" cy="594.96" r="1.26"/><circle class="cls-1" cx="691.22" cy="600.28" r="1.26"/><circle class="cls-1" cx="690.37" cy="602.83" r="1.26"/><circle class="cls-1" cx="688.68" cy="600.33" r="1.26"/><circle class="cls-1" cx="687.42" cy="601.81" r="1.26"/><circle class="cls-1" cx="689.3" cy="611" r="1.26"/><circle class="cls-1" cx="689.69" cy="613.45" r="1.26"/><circle class="cls-1" cx="690.69" cy="616.48" r="1.26"/><circle class="cls-1" cx="688.25" cy="615.67" r="1.26"/><circle class="cls-1" cx="694.09" cy="614.6" r="1.26"/><circle class="cls-1" cx="694.67" cy="613.73" r="1.26"/><circle class="cls-1" cx="694.33" cy="613.08" r="1.26"/><circle class="cls-1" cx="695.34" cy="611.14" r="1.26"/><circle class="cls-1" cx="694.48" cy="610.15" r="1.26"/><circle class="cls-1" cx="718.26" cy="535.46" r="1.26"/><circle class="cls-1" cx="714.43" cy="538.62" r="1.26"/><circle class="cls-1" cx="708.94" cy="540.94" r="1.26"/><circle class="cls-1" cx="710.65" cy="540.56" r="1.26"/><circle class="cls-1" cx="709.99" cy="541.79" r="1.26"/><circle class="cls-1" cx="707.13" cy="542.79" r="1.26"/><circle class="cls-1" cx="721.71" cy="535.39" r="1.26"/><circle class="cls-1" cx="715.5" cy="541.78" r="1.26"/><circle class="cls-1" cx="711.34" cy="543.16" r="1.26"/><circle class="cls-1" cx="711.99" cy="544.08" r="1.26"/><circle class="cls-1" cx="712.36" cy="543.73" r="1.26"/><circle class="cls-1" cx="712.96" cy="544.52" r="1.26"/><circle class="cls-1" cx="715.69" cy="545.43" r="1.26"/><circle class="cls-1" cx="716.99" cy="545" r="1.26"/><circle class="cls-1" cx="719.48" cy="543.02" r="1.26"/><circle class="cls-1" cx="717.81" cy="542.93" r="1.26"/><circle class="cls-1" cx="720.31" cy="541.77" r="1.26"/><circle class="cls-1" cx="721.29" cy="542.85" r="1.26"/><circle class="cls-1" cx="724.16" cy="542.54" r="1.26"/><circle class="cls-1" cx="726.29" cy="539.52" r="1.26"/><circle class="cls-1" cx="729.88" cy="538.05" r="1.26"/><circle class="cls-1" cx="731.18" cy="536.5" r="1.26"/><circle class="cls-1" cx="727.4" cy="542.49" r="1.26"/><circle class="cls-1" cx="728.56" cy="543.37" r="1.26"/><circle class="cls-1" cx="722.3" cy="541.54" r="1.26"/><circle class="cls-1" cx="721.21" cy="540.96" r="1.26"/><circle class="cls-1" cx="719.64" cy="539.93" r="1.26"/><circle class="cls-1" cx="721.14" cy="545.29" r="1.26"/><circle class="cls-1" cx="719.17" cy="537.58" r="1.26"/><circle class="cls-1" cx="719.64" cy="546.37" r="1.26"/><circle class="cls-1" cx="736.69" cy="532.19" r="1.26"/><circle class="cls-1" cx="719.02" cy="539.47" r="1.26"/><circle class="cls-1" cx="715.34" cy="543.83" r="1.26"/><circle class="cls-1" cx="708.68" cy="529.65" r="1.26"/><circle class="cls-1" cx="709.16" cy="529.25" r="1.26"/><circle class="cls-1" cx="711.94" cy="530.46" r="1.26"/><circle class="cls-1" cx="710.53" cy="530.33" r="1.26"/><circle class="cls-1" cx="708.22" cy="531.48" r="1.26"/><circle class="cls-1" cx="707.71" cy="531.16" r="1.26"/><circle class="cls-1" cx="714.6" cy="533.86" r="1.26"/><circle class="cls-1" cx="713.65" cy="533.02" r="1.26"/><circle class="cls-1" cx="711.27" cy="531.49" r="1.26"/><circle class="cls-1" cx="710.15" cy="532.24" r="1.26"/><circle class="cls-1" cx="711.38" cy="533.57" r="1.26"/><circle class="cls-1" cx="710.82" cy="533.36" r="1.26"/><circle class="cls-1" cx="711.03" cy="532.87" r="1.26"/><circle class="cls-1" cx="709.48" cy="533.72" r="1.26"/><circle class="cls-1" cx="708.41" cy="532.46" r="1.26"/><circle class="cls-1" cx="718.58" cy="532.61" r="1.26"/><circle class="cls-1" cx="718.15" cy="533.48" r="1.26"/><circle class="cls-1" cx="720.84" cy="531.44" r="1.26"/><circle class="cls-1" cx="721.13" cy="532.98" r="1.26"/><circle class="cls-1" cx="724.12" cy="533.99" r="1.26"/><circle class="cls-1" cx="724.23" cy="534.72" r="1.26"/><circle class="cls-1" cx="717.86" cy="528.67" r="1.26"/><circle class="cls-1" cx="719.06" cy="528.84" r="1.26"/><circle class="cls-1" cx="722.18" cy="528.38" r="1.26"/><circle class="cls-1" cx="728.92" cy="528.9" r="1.26"/><circle class="cls-1" cx="729.52" cy="527.36" r="1.26"/><circle class="cls-1" cx="732.51" cy="533.55" r="1.26"/><circle class="cls-1" cx="747.68" cy="524.56" r="1.26"/><circle class="cls-1" cx="731.28" cy="526.06" r="1.26"/><circle class="cls-1" cx="718.82" cy="530.8" r="1.26"/><circle class="cls-1" cx="721.31" cy="530.93" r="1.26"/><circle class="cls-1" cx="741.04" cy="528.57" r="1.26"/><circle class="cls-1" cx="731.11" cy="533.03" r="1.26"/><circle class="cls-1" cx="726.77" cy="534.97" r="1.26"/><circle class="cls-1" cx="705.54" cy="524.57" r="1.26"/><circle class="cls-1" cx="703.01" cy="525.53" r="1.26"/><circle class="cls-1" cx="708.3" cy="521.39" r="1.26"/><circle class="cls-1" cx="710.33" cy="519.4" r="1.26"/><circle class="cls-1" cx="713.94" cy="524.11" r="1.26"/><circle class="cls-1" cx="707.71" cy="526.16" r="1.26"/><circle class="cls-1" cx="714.83" cy="519.61" r="1.26"/><circle class="cls-1" cx="726.56" cy="525.82" r="1.26"/><circle class="cls-1" cx="733.63" cy="524.32" r="1.26"/><circle class="cls-1" cx="731.38" cy="523.05" r="1.26"/><circle class="cls-1" cx="728.67" cy="523.18" r="1.26"/><circle class="cls-1" cx="730.72" cy="521.07" r="1.26"/><circle class="cls-1" cx="736.9" cy="519.79" r="1.26"/><circle class="cls-1" cx="736.54" cy="523.3" r="1.26"/><circle class="cls-1" cx="721.54" cy="524.66" r="1.26"/><circle class="cls-1" cx="701.8" cy="589.59" r="1.26"/><circle class="cls-1" cx="702.42" cy="578.34" r="1.26"/><circle class="cls-1" cx="697.72" cy="597.18" r="1.26"/><circle class="cls-1" cx="696.38" cy="594.15" r="1.26"/><circle class="cls-1" cx="696.66" cy="591.58" r="1.26"/><circle class="cls-1" cx="696.62" cy="588.02" r="1.26"/><circle class="cls-1" cx="697.93" cy="591.07" r="1.26"/><circle class="cls-1" cx="698.24" cy="591.06" r="1.26"/><circle class="cls-1" cx="699.6" cy="575.88" r="1.26"/><circle class="cls-1" cx="705.82" cy="566.05" r="1.26"/><circle class="cls-1" cx="705.91" cy="565.18" r="1.26"/><circle class="cls-1" cx="706.37" cy="563.68" r="1.26"/><circle class="cls-1" cx="705.95" cy="563.96" r="1.26"/><circle class="cls-1" cx="706.08" cy="562.07" r="1.26"/><circle class="cls-1" cx="706.33" cy="560.88" r="1.26"/><circle class="cls-1" cx="706.31" cy="559.68" r="1.26"/><circle class="cls-1" cx="706.75" cy="558.71" r="1.26"/><circle class="cls-1" cx="707.08" cy="557.39" r="1.26"/><circle class="cls-1" cx="700.69" cy="562.84" r="1.26"/><circle class="cls-1" cx="700.51" cy="565.23" r="1.26"/><circle class="cls-1" cx="692.88" cy="574.26" r="1.26"/><circle class="cls-1" cx="694.5" cy="573.9" r="1.26"/><circle class="cls-1" cx="670.58" cy="521.43" r="1.26"/><circle class="cls-1" cx="676.14" cy="520.98" r="1.26"/><circle class="cls-1" cx="678.5" cy="519.84" r="1.26"/><circle class="cls-1" cx="680.71" cy="518.46" r="1.26"/><circle class="cls-1" cx="683" cy="516.53" r="1.26"/><circle class="cls-1" cx="682.6" cy="520.43" r="1.26"/><circle class="cls-1" cx="683.49" cy="519.99" r="1.26"/><circle class="cls-1" cx="685.88" cy="517.31" r="1.26"/><circle class="cls-1" cx="687.05" cy="516.19" r="1.26"/><circle class="cls-1" cx="686.74" cy="519.12" r="1.26"/><circle class="cls-1" cx="685.68" cy="520.34" r="1.26"/><circle class="cls-1" cx="690.6" cy="518.7" r="1.26"/><circle class="cls-1" cx="691.95" cy="520.23" r="1.26"/><circle class="cls-1" cx="692.4" cy="521.52" r="1.26"/><circle class="cls-1" cx="697.97" cy="518.9" r="1.26"/><circle class="cls-1" cx="695.73" cy="515.15" r="1.26"/><circle class="cls-1" cx="675.88" cy="526.57" r="1.26"/><circle class="cls-1" cx="676.95" cy="526.04" r="1.26"/><circle class="cls-1" cx="677.71" cy="526.26" r="1.26"/><circle class="cls-1" cx="676.58" cy="528.63" r="1.26"/><circle class="cls-1" cx="674.83" cy="533.81" r="1.26"/><circle class="cls-1" cx="677.2" cy="529.94" r="1.26"/><circle class="cls-1" cx="679.11" cy="529.63" r="1.26"/><circle class="cls-1" cx="681.72" cy="527.97" r="1.26"/><circle class="cls-1" cx="682.22" cy="525.98" r="1.26"/><circle class="cls-1" cx="685.6" cy="530.21" r="1.26"/><circle class="cls-1" cx="685.94" cy="531.01" r="1.26"/><circle class="cls-1" cx="681.85" cy="533.22" r="1.26"/><circle class="cls-1" cx="680.1" cy="531.92" r="1.26"/><circle class="cls-1" cx="677.25" cy="532.95" r="1.26"/><circle class="cls-1" cx="679.71" cy="523.17" r="1.26"/><circle class="cls-1" cx="684.61" cy="527.29" r="1.26"/><circle class="cls-1" cx="687.85" cy="528.71" r="1.26"/><circle class="cls-1" cx="691.79" cy="525.17" r="1.26"/><circle class="cls-1" cx="685.9" cy="522.27" r="1.26"/><circle class="cls-1" cx="688.18" cy="519.28" r="1.26"/><circle class="cls-1" cx="691.43" cy="522.05" r="1.26"/><circle class="cls-1" cx="694.22" cy="520.31" r="1.26"/><circle class="cls-1" cx="683.05" cy="528.56" r="1.26"/><circle class="cls-1" cx="682.41" cy="514.31" r="1.26"/><circle class="cls-1" cx="669.09" cy="527.51" r="1.26"/><circle class="cls-1" cx="678.62" cy="523.76" r="1.26"/><circle class="cls-1" cx="654.24" cy="538.43" r="1.26"/><circle class="cls-1" cx="658.41" cy="537.58" r="1.26"/><circle class="cls-1" cx="659.59" cy="537.29" r="1.26"/><circle class="cls-1" cx="658.11" cy="541.09" r="1.26"/><circle class="cls-1" cx="636.35" cy="549.37" r="1.26"/><circle class="cls-1" cx="638.56" cy="547.78" r="1.26"/><circle class="cls-1" cx="640.05" cy="546.16" r="1.26"/><circle class="cls-1" cx="643.16" cy="540.34" r="1.26"/><circle class="cls-1" cx="647.1" cy="540.47" r="1.26"/><circle class="cls-1" cx="646.07" cy="541.42" r="1.26"/><circle class="cls-1" cx="633.16" cy="556.81" r="1.26"/><circle class="cls-1" cx="643.85" cy="547.78" r="1.26"/><circle class="cls-1" cx="668.95" cy="608.19" r="1.26"/><circle class="cls-1" cx="669.62" cy="609.04" r="1.26"/><circle class="cls-1" cx="675.65" cy="607.58" r="1.26"/><circle class="cls-1" cx="679.18" cy="607.69" r="1.26"/><circle class="cls-1" cx="654.78" cy="622.59" r="1.26"/><circle class="cls-1" cx="674.73" cy="611.01" r="1.26"/><circle class="cls-1" cx="661.48" cy="614.8" r="1.26"/><circle class="cls-1" cx="662.84" cy="613.57" r="1.26"/><circle class="cls-1" cx="665.18" cy="612.02" r="1.26"/><circle class="cls-1" cx="670.77" cy="618.84" r="1.26"/><circle class="cls-1" cx="668.91" cy="615.38" r="1.26"/><circle class="cls-1" cx="671.33" cy="615.11" r="1.26"/><circle class="cls-1" cx="649.3" cy="621.96" r="1.26"/><circle class="cls-1" cx="628.56" cy="615.67" r="1.26"/><circle class="cls-1" cx="672.65" cy="585.66" r="1.26"/><circle class="cls-1" cx="633.54" cy="608.6" r="1.26"/><circle class="cls-1" cx="633.9" cy="595.8" r="1.26"/><circle class="cls-1" cx="631.26" cy="577.76" r="1.26"/><circle class="cls-1" cx="637.67" cy="541.79" r="1.26"/><circle class="cls-1" cx="635.71" cy="541.24" r="1.26"/><circle class="cls-1" cx="637.43" cy="540.87" r="1.26"/><circle class="cls-1" cx="637.43" cy="538.7" r="1.26"/><circle class="cls-1" cx="637.36" cy="540.09" r="1.26"/><circle class="cls-1" cx="645.41" cy="522.64" r="1.26"/><circle class="cls-1" cx="631.31" cy="527.64" r="1.26"/><circle class="cls-1" cx="634.06" cy="529.19" r="1.26"/><circle class="cls-1" cx="639.48" cy="533.03" r="1.26"/><circle class="cls-1" cx="640.27" cy="531.08" r="1.26"/><circle class="cls-1" cx="629.77" cy="527.12" r="1.26"/><circle class="cls-1" cx="632.22" cy="529.73" r="1.26"/><circle class="cls-1" cx="633.51" cy="531.07" r="1.26"/><circle class="cls-1" cx="637.11" cy="533.29" r="1.26"/><circle class="cls-1" cx="637.46" cy="534.79" r="1.26"/><circle class="cls-1" cx="638.56" cy="535.79" r="1.26"/><circle class="cls-1" cx="633.86" cy="537.18" r="1.26"/><circle class="cls-1" cx="631.79" cy="535.01" r="1.26"/><circle class="cls-1" cx="632.72" cy="539.22" r="1.26"/><circle class="cls-1" cx="632.09" cy="544.72" r="1.26"/><circle class="cls-1" cx="634.72" cy="542.33" r="1.26"/><circle class="cls-1" cx="640.04" cy="522.41" r="1.26"/><circle class="cls-1" cx="636.89" cy="528.16" r="1.26"/><circle class="cls-1" cx="639.7" cy="526" r="1.26"/><circle class="cls-1" cx="640.77" cy="524.15" r="1.26"/><circle class="cls-1" cx="632.97" cy="522.68" r="1.26"/><circle class="cls-1" cx="631.12" cy="523.16" r="1.26"/><circle class="cls-1" cx="633.32" cy="525.38" r="1.26"/><circle class="cls-1" cx="646.18" cy="531.41" r="1.26"/><circle class="cls-1" cx="649.94" cy="534.02" r="1.26"/><circle class="cls-1" cx="643.78" cy="530.75" r="1.26"/><circle class="cls-1" cx="643.14" cy="538.64" r="1.26"/><circle class="cls-1" cx="644.13" cy="538.68" r="1.26"/><circle class="cls-1" cx="642.44" cy="539.56" r="1.26"/><circle class="cls-1" cx="643.18" cy="536.65" r="1.26"/><circle class="cls-1" cx="643.83" cy="537" r="1.26"/><circle class="cls-1" cx="645.26" cy="536.58" r="1.26"/><circle class="cls-1" cx="646.27" cy="536.73" r="1.26"/><circle class="cls-1" cx="644.21" cy="535.79" r="1.26"/><circle class="cls-1" cx="647.97" cy="536.45" r="1.26"/><circle class="cls-1" cx="647.85" cy="534.62" r="1.26"/><circle class="cls-1" cx="648.72" cy="535.7" r="1.26"/><circle class="cls-1" cx="646.24" cy="536.13" r="1.26"/><circle class="cls-1" cx="643.72" cy="533.64" r="1.26"/><circle class="cls-1" cx="644.45" cy="533.78" r="1.26"/><circle class="cls-1" cx="639.89" cy="541.01" r="1.26"/><circle class="cls-1" cx="640.27" cy="540.85" r="1.26"/><circle class="cls-1" cx="640.18" cy="540.42" r="1.26"/><circle class="cls-1" cx="640.69" cy="539.41" r="1.26"/><circle class="cls-1" cx="641.33" cy="538.61" r="1.26"/><circle class="cls-1" cx="641.84" cy="538.1" r="1.26"/><circle class="cls-1" cx="641.49" cy="537.81" r="1.26"/><circle class="cls-1" cx="648.29" cy="521.93" r="1.26"/><circle class="cls-1" cx="650.27" cy="519.45" r="1.26"/><circle class="cls-1" cx="654.06" cy="520.33" r="1.26"/><circle class="cls-1" cx="655.25" cy="520.07" r="1.26"/><circle class="cls-1" cx="653.57" cy="519.51" r="1.26"/><circle class="cls-1" cx="649.6" cy="527.27" r="1.26"/><circle class="cls-1" cx="651.12" cy="531.61" r="1.26"/><circle class="cls-1" cx="646.51" cy="523.12" r="1.26"/><circle class="cls-1" cx="647.63" cy="525.07" r="1.26"/><circle class="cls-1" cx="648.58" cy="526.33" r="1.26"/><circle class="cls-1" cx="651.08" cy="525.57" r="1.26"/><circle class="cls-1" cx="653.22" cy="527.38" r="1.26"/><circle class="cls-1" cx="654.22" cy="527.74" r="1.26"/><circle class="cls-1" cx="655.07" cy="528.04" r="1.26"/><circle class="cls-1" cx="654.57" cy="528.92" r="1.26"/><circle class="cls-1" cx="658.43" cy="524.24" r="1.26"/><circle class="cls-1" cx="658.39" cy="521.85" r="1.26"/><circle class="cls-1" cx="658.6" cy="521.34" r="1.26"/><circle class="cls-1" cx="659.16" cy="522.02" r="1.26"/><circle class="cls-1" cx="660.12" cy="521.95" r="1.26"/><circle class="cls-1" cx="659.54" cy="521.22" r="1.26"/><circle class="cls-1" cx="659.7" cy="524.86" r="1.26"/><circle class="cls-1" cx="658.67" cy="525.7" r="1.26"/><circle class="cls-1" cx="659.28" cy="530.34" r="1.26"/><circle class="cls-1" cx="656.26" cy="526.18" r="1.26"/><circle class="cls-1" cx="653.42" cy="522.18" r="1.26"/><circle class="cls-1" cx="654.62" cy="521.95" r="1.26"/><circle class="cls-1" cx="651.81" cy="521.21" r="1.26"/><circle class="cls-1" cx="652.26" cy="526.79" r="1.26"/><circle class="cls-1" cx="651.43" cy="527.11" r="1.26"/><circle class="cls-1" cx="652.6" cy="523.96" r="1.26"/><circle class="cls-1" cx="654.76" cy="524.58" r="1.26"/><circle class="cls-1" cx="650.41" cy="523.7" r="1.26"/><circle class="cls-1" cx="651.21" cy="523.34" r="1.26"/><circle class="cls-1" cx="630.7" cy="518.21" r="1.26"/><circle class="cls-1" cx="633.76" cy="518.52" r="1.26"/><circle class="cls-1" cx="632.73" cy="518.6" r="1.26"/><circle class="cls-1" cx="627.81" cy="549.38" r="1.26"/><circle class="cls-1" cx="625.61" cy="551.62" r="1.26"/><circle class="cls-1" cx="626.84" cy="528.76" r="1.26"/><circle class="cls-1" cx="623.65" cy="528.62" r="1.26"/><circle class="cls-1" cx="624.88" cy="526.34" r="1.26"/><circle class="cls-1" cx="625.98" cy="523.56" r="1.26"/><circle class="cls-1" cx="626.16" cy="524.61" r="1.26"/><circle class="cls-1" cx="628.26" cy="528.74" r="1.26"/><circle class="cls-1" cx="625.75" cy="532.68" r="1.26"/><circle class="cls-1" cx="626.7" cy="530.27" r="1.26"/><circle class="cls-1" cx="623.12" cy="587.44" r="1.26"/><circle class="cls-1" cx="626.05" cy="583.63" r="1.26"/><circle class="cls-1" cx="625.7" cy="584.51" r="1.26"/><circle class="cls-1" cx="627.41" cy="584.56" r="1.26"/><circle class="cls-1" cx="627.74" cy="578.61" r="1.26"/><circle class="cls-1" cx="625.59" cy="564.13" r="1.26"/><circle class="cls-1" cx="660.89" cy="547.12" r="1.26"/><circle class="cls-1" cx="653.21" cy="551.23" r="1.26"/><circle class="cls-1" cx="643.57" cy="574.8" r="1.26"/><circle class="cls-1" cx="655.03" cy="573.47" r="1.26"/><circle class="cls-1" cx="655.12" cy="575.81" r="1.26"/><circle class="cls-1" cx="765.58" cy="552.58" r="1.26"/><circle class="cls-1" cx="734.87" cy="566.62" r="1.26"/><circle class="cls-1" cx="722.56" cy="568.62" r="1.26"/><circle class="cls-1" cx="718.87" cy="569.55" r="1.26"/><circle class="cls-1" cx="706.03" cy="577.56" r="1.26"/><circle class="cls-1" cx="751.95" cy="605.98" r="1.26"/><circle class="cls-1" cx="751.18" cy="606.34" r="1.26"/><circle class="cls-1" cx="750.6" cy="606.88" r="1.26"/><circle class="cls-1" cx="692.76" cy="610.39" r="1.26"/><circle class="cls-1" cx="668.94" cy="611.51" r="1.26"/><circle class="cls-1" cx="634.95" cy="545.33" r="1.26"/><circle class="cls-1" cx="632.56" cy="547.5" r="1.26"/><circle class="cls-1" cx="632.05" cy="526.99" r="1.26"/><circle class="cls-1" cx="644.97" cy="533.42" r="1.26"/><circle class="cls-1" cx="640.86" cy="537.48" r="1.26"/><circle class="cls-1" cx="642.22" cy="533.05" r="1.26"/><circle class="cls-1" cx="627.12" cy="529.68" r="1.26"/></g></g></svg>